<?xml version="1.0" encoding="UTF-8" standalone="no"?>
<!-- Created with Inkscape (http://www.inkscape.org/) -->

<svg
   xmlns:dc="http://purl.org/dc/elements/1.1/"
   xmlns:cc="http://creativecommons.org/ns#"
   xmlns:rdf="http://www.w3.org/1999/02/22-rdf-syntax-ns#"
   xmlns:svg="http://www.w3.org/2000/svg"
   xmlns="http://www.w3.org/2000/svg"
   xmlns:sodipodi="http://sodipodi.sourceforge.net/DTD/sodipodi-0.dtd"
   xmlns:inkscape="http://www.inkscape.org/namespaces/inkscape"
   width="4.3900003cm"
   height="5.0866222cm"
   viewBox="0 0 155.55119 180.23465"
   id="svg6157"
   version="1.1"
   inkscape:version="0.91 r"
   sodipodi:docname="hex-sticker.svg">
  <defs
     id="defs6159" />
  <sodipodi:namedview
     id="base"
     pagecolor="#1e1e15"
     bordercolor="#666666"
     borderopacity="1.0"
     inkscape:pageopacity="0"
     inkscape:pageshadow="2"
     inkscape:zoom="5.6"
     inkscape:cx="44.43957"
     inkscape:cy="136.47851"
     inkscape:document-units="px"
     inkscape:current-layer="layer1"
     showgrid="false"
     fit-margin-top="0"
     fit-margin-left="0"
     fit-margin-right="0"
     fit-margin-bottom="0"
     units="cm"
     inkscape:window-width="1920"
     inkscape:window-height="1028"
     inkscape:window-x="0"
     inkscape:window-y="0"
     inkscape:window-maximized="1" />
  <metadata
     id="metadata6162">
    <rdf:RDF>
      <cc:Work
         rdf:about="">
        <dc:format>image/svg+xml</dc:format>
        <dc:type
           rdf:resource="http://purl.org/dc/dcmitype/StillImage" />
        <dc:title></dc:title>
      </cc:Work>
    </rdf:RDF>
  </metadata>
  <g
     inkscape:label="Layer 1"
     inkscape:groupmode="layer"
     id="layer1"
     transform="translate(-295.63516,-434.48391)">
    <path
       sodipodi:type="star"
       style="color:#000000;display:inline;overflow:visible;visibility:visible;fill:#ff9300;fill-opacity:1;fill-rule:nonzero;stroke:#ffffff;stroke-width:9.89693617;stroke-linecap:square;stroke-linejoin:miter;stroke-miterlimit:4;stroke-dasharray:none;stroke-dashoffset:0;stroke-opacity:1;marker:none;enable-background:accumulate"
       id="path17178"
       sodipodi:sides="6"
       sodipodi:cx="121.90476"
       sodipodi:cy="126.57602"
       sodipodi:r1="103.56153"
       sodipodi:r2="103.56153"
       sodipodi:arg1="-0.52327829"
       sodipodi:arg2="0.0003204856"
       inkscape:flatsided="true"
       inkscape:rounded="0"
       inkscape:randomized="0"
       d="m 211.60827,74.824 -0.0332,103.56153 -89.70351,51.75202 -89.670315,-51.80951 0.03319,-103.561527 89.703505,-51.752019 z"
       inkscape:transform-center-x="0.33226181"
       inkscape:transform-center-y="-1.4866856"
       transform="matrix(0.82169185,0,0,0.82467896,273.2426,420.21665)" />
    <path
       style="display:inline"
       inkscape:connector-curvature="0"
       d="m 354.96722,466.07248 -0.38817,0.51673 c -2.19401,3.22648 3.74423,9.93707 5.422,11.74389 -3.87178,9.8085 15.48607,23.48826 16.3895,24.00448 l 0.3882,0.25963 0.38565,-0.38817 c 0.9034,-0.77436 2.45212,-1.16204 4.51706,-1.16204 0.77435,0 1.54821,0.003 2.06445,0.13107 l 0.90492,0 c 0.12906,0 0.64429,-8.9e-4 0.9024,-0.38818 l 0.25966,-0.38819 -0.25966,-0.38566 c -16.77769,-26.32806 -29.55302,-33.29676 -30.06925,-33.68393 l -0.51676,-0.25963 z m 0.51676,1.93588 c 1.03247,0.6453 2.96633,2.06546 5.67658,4.38852 l 10.58435,17.16587 -10.45327,-5.6791 c -0.6453,-1.93589 -0.77486,-3.74422 0.12854,-5.422 l 0.25711,-0.38567 -0.38565,-0.38818 c -2.71024,-2.8393 -6.06579,-7.48544 -5.80766,-9.67944 z m 9.67943,8.26029 c 5.03331,5.03331 11.35569,12.51974 18.45394,23.61884 -0.51624,0 -1.16204,-0.13109 -1.80733,-0.13109 -0.77437,0 -1.29059,0.003 -1.93589,0.13109 l -14.71072,-23.61884 z m -2.84082,9.808 10.97002,6.06729 5.03382,8.12921 c -0.51624,0.12906 -1.03146,0.38718 -1.54768,0.6453 -2.06496,-1.41966 -10.97157,-8.25978 -14.45616,-14.8418 z m -26.32856,3.4861 c -4.25895,0 -18.19735,0.77285 -20.00419,10.0651 -0.25811,1.03248 0.13111,2.19401 0.77639,3.22649 2.8393,4.12988 13.29157,8.00267 24.90689,11.35819 0,0.12907 -5e-4,0.25863 0.12856,0.51676 12.51873,16.26145 9.67943,17.80864 9.67943,17.80864 -1.67778,3.74272 -6.71108,9e-4 -17.42299,-12.51771 -2.71024,3.0974 -5.41947,9.41979 -5.41947,9.41979 4.38802,4.25895 8.13022,7.615 13.03446,10.84148 2.06495,1.29059 1.033,4.38902 -1.41913,4.25996 -5.6786,-0.25812 -11.22866,-5.03281 -14.71325,-7.22682 -1.03249,6.19486 -0.51674,11.09858 -0.51674,11.09858 4.00082,1.54871 7.22731,1.93489 13.55121,3.4836 2.96836,0.6453 2.45213,5.16236 -0.6453,5.16236 -2.71025,-0.12906 -6.96767,-1.16052 -13.2916,-2.83829 0.3872,2.194 1.41866,6.32239 2.193,6.83862 2.32309,1.41965 13.67977,0 13.67977,0 l 5.03383,2.71226 c 3.87176,-2.71025 13.16504,-7.87361 17.16587,-16.52058 4.1299,-8.64695 9.80798,-10.19617 9.80798,-10.19617 -5.0333,-6.3239 -6.71005,-12.25911 -6.71005,-17.16336 1.03247,0.25811 2.19197,0.38717 3.09539,0.6453 0.12906,5.16236 1.93741,10.32474 4.77669,13.55121 7.22732,8.38885 19.23034,1.15952 19.23034,1.15952 2.06494,-14.97086 10.45327,-16.77769 10.45327,-16.77769 1.29059,-3.35554 -3.35655,-18.32641 -20.39235,-16.13241 -4.51707,0.64531 -7.87108,2.58322 -10.06509,5.29347 -9.42131,-6.96921 -20.9091,-14.06796 -24.78087,-16.00385 -2.45213,-1.2906 -7.22782,-2.06445 -12.13206,-2.06445 z m 0,1.54771 c 4.64612,0 9.16421,0.64579 11.35821,1.80733 6.19483,3.09742 31.87862,19.22881 37.17003,27.35953 l 0.12856,0.12856 -34.58885,-19.61601 -0.12855,-0.12853 -3.22648,0 -15.74418,-9.29378 c 1.67775,-0.25811 3.35349,-0.2571 5.03127,-0.2571 z m -7.22681,0.64529 15.10143,9.03414 -9.67942,0.12855 -16.7777,-1.80732 c 1.2906,-4.12992 5.9352,-6.32292 11.35569,-7.35538 z m -11.48678,8.77703 16.90879,1.8048 3.09539,0 4.25995,3.22649 -10.19617,4.00285 c -6.58202,-2.32306 -11.74489,-4.90526 -13.42266,-7.48643 -0.38718,-0.51625 -0.51624,-1.03148 -0.6453,-1.54771 z m 32.13624,1.54771 19.48743,11.09858 -9.54836,-0.64529 -16.00385,-7.35538 -3.74321,-2.84082 9.80799,-0.25709 z m -6.32441,4.3885 15.87529,7.35537 13.03446,1.03348 12.13206,6.83862 -0.51673,0 c -10.19568,-1.5487 -33.94103,-6.06376 -50.07341,-11.48426 l 9.54833,-3.74321 z m 86.72926,4.00033 c 0,0 -8.38885,2.45313 -9.67944,2.96937 -0.77436,0.25812 -3.7422,2.96786 -5.9362,5.29092 -1.67777,-0.64529 -4.77672,-0.90341 -9.29378,1.29061 -7.22731,3.61365 -14.97087,15.87376 -3.22647,27.23096 l 2.70973,1.93589 c 0,0 2.45261,-2.71025 5.6791,0 0,0 11.35821,-4.51758 11.35821,-19.87561 0,-0.51624 5.2e-4,-1.03148 -0.12854,-1.5477 l 3.48359,1.29059 c 0,0 4.90323,7.22682 6.06477,8.5174 1.03247,1.29059 1.16204,-0.38819 1.16204,-0.38819 0,0 -5.29042,-7.35585 -6.06477,-8.5174 -0.38718,-0.51624 -2.58219,-1.42016 -4.90526,-2.45261 -1.29059,-5.42049 -5.54802,-6.83864 -5.54802,-6.83864 l -0.13108,0 4.7767,-4.7767 c 0,0 7.87261,-2.32155 9.67943,-2.96685 1.80683,-0.64529 0,-1.16204 0,-1.16204 z m -23.78519,13.63188 c 0.14629,-2.4e-4 0.28886,0.0156 0.42599,0.0479 2.32307,0.38718 3.87078,4.64664 2.8383,9.55089 -1.03249,4.90425 -4.38751,8.77602 -6.58152,8.38884 -2.19401,-0.51624 -4.00184,-4.77469 -2.96937,-9.80798 0.96794,-4.59774 4.09219,-8.17586 6.2866,-8.17964 z m -12.35137,14.11585 -5.16238,1.67878 c -0.12904,0 -2.194,2.4511 -1.29057,6.06475 0,0 -5.03482,3.87078 -4.77671,6.06479 0,0 0.90342,3.61566 0,5.29343 -0.90341,1.67777 0.64631,1.5477 1.03348,0.25712 0.38717,-1.2906 0.51675,-1.67878 0.51675,-1.67878 0.51623,-1.80683 0.51673,-3.87177 0.51673,-3.87177 l 5.0313,-4.51707 c 0,0 3.61516,-1.03148 4.1314,-9.29125 z m -21.16621,1.54769 c 0,0 -4.51707,1.42117 -4.51707,4.13142 0,0 1.80682,7.22579 4.51707,8.12921 0,0 2.8393,6.45346 5.16237,6.96968 l 0.3882,0 c 0.38715,-0.12905 0.6453,-0.51473 0.6453,-1.03095 -0.12906,-0.38718 -0.38921,-0.77587 -0.77638,-0.90493 0,0 -3.22498,-2.06544 -3.61215,-5.0338 0,0 1.80632,-4.00085 -1.80734,-12.26063 z m 34.27631,10.22138 c -0.61706,0.0241 -1.3652,0.23242 -2.26861,0.74865 0,0 -0.51626,4.38852 1.29058,4.38852 1.80683,0 2.96735,-1.67627 3.48359,-3.61214 0,0 -0.65438,-1.59762 -2.50556,-1.52503 z m -46.79402,4.7515 -4.25998,4.386 c 0,0 3.61265,3.74472 6.06477,5.93873 1.03248,0.90341 2.58169,0.51423 3.09794,-0.77636 l 2.45262,4.13141 c 0.12905,0.2581 0.25913,0.38566 0.3882,0.38566 0.25811,0 0.51421,-0.25812 0.51421,-0.6453 0,0 4.9e-4,-0.12804 -0.12855,-0.25712 -0.12904,-0.64529 -0.64379,-2.32356 -1.67625,-4.3885 0,0 -1.03248,-5.41898 -6.45296,-8.77452 z m -20.07224,8.52245 c -0.19157,0.0183 -0.38362,0.0589 -0.57722,0.1235 -5.03331,1.54872 -10.84149,0.38819 -10.84149,0.38819 0.25812,5.6786 8.2603,10.97003 8.2603,10.97003 -0.25811,-2.32306 3.86975,-6.0673 6.32187,-8.00318 0.77436,-0.64529 0.64581,-1.80532 -0.12853,-2.32155 l -1.41915,-0.77637 c -0.48399,-0.29039 -1.04104,-0.43507 -1.61576,-0.38062 z"
       id="path4234" />
  </g>
</svg>
