<?xml version="1.0" encoding="UTF-8" standalone="no"?>
<!-- Created with Inkscape (http://www.inkscape.org/) -->

<svg
   xmlns:dc="http://purl.org/dc/elements/1.1/"
   xmlns:cc="http://creativecommons.org/ns#"
   xmlns:rdf="http://www.w3.org/1999/02/22-rdf-syntax-ns#"
   xmlns:svg="http://www.w3.org/2000/svg"
   xmlns="http://www.w3.org/2000/svg"
   xmlns:sodipodi="http://sodipodi.sourceforge.net/DTD/sodipodi-0.dtd"
   xmlns:inkscape="http://www.inkscape.org/namespaces/inkscape"
   width="4.3900003cm"
   height="5.0866222cm"
   viewBox="0 0 155.55119 180.23465"
   id="svg6157"
   version="1.1"
   inkscape:version="0.91 r"
   sodipodi:docname="hex-sticker-text.svg"
   inkscape:export-filename="/home/espenh/Downloads/mead-sticker.png"
   inkscape:export-xdpi="1735.7373"
   inkscape:export-ydpi="1735.7373">
  <defs
     id="defs6159" />
  <sodipodi:namedview
     id="base"
     pagecolor="#1e1e15"
     bordercolor="#666666"
     borderopacity="1.0"
     inkscape:pageopacity="0"
     inkscape:pageshadow="2"
     inkscape:zoom="2.8"
     inkscape:cx="63.507868"
     inkscape:cy="93.008542"
     inkscape:document-units="px"
     inkscape:current-layer="layer1"
     showgrid="false"
     fit-margin-top="0"
     fit-margin-left="0"
     fit-margin-right="0"
     fit-margin-bottom="0"
     units="cm"
     inkscape:window-width="1920"
     inkscape:window-height="1028"
     inkscape:window-x="0"
     inkscape:window-y="0"
     inkscape:window-maximized="1" />
  <metadata
     id="metadata6162">
    <rdf:RDF>
      <cc:Work
         rdf:about="">
        <dc:format>image/svg+xml</dc:format>
        <dc:type
           rdf:resource="http://purl.org/dc/dcmitype/StillImage" />
        <dc:title></dc:title>
      </cc:Work>
    </rdf:RDF>
  </metadata>
  <g
     inkscape:label="Layer 1"
     inkscape:groupmode="layer"
     id="layer1"
     transform="translate(-295.63516,-434.48391)">
    <path
       sodipodi:type="star"
       style="color:#000000;display:inline;overflow:visible;visibility:visible;fill:#ff9300;fill-opacity:1;fill-rule:nonzero;stroke:#ffffff;stroke-width:7.95326376;stroke-linecap:square;stroke-linejoin:miter;stroke-miterlimit:4;stroke-dasharray:none;stroke-dashoffset:0;stroke-opacity:1;marker:none;enable-background:accumulate"
       id="path17178"
       sodipodi:sides="6"
       sodipodi:cx="121.90476"
       sodipodi:cy="126.57602"
       sodipodi:r1="103.56153"
       sodipodi:r2="103.56153"
       sodipodi:arg1="-0.52327829"
       sodipodi:arg2="0.0003204856"
       inkscape:flatsided="true"
       inkscape:rounded="0"
       inkscape:randomized="0"
       d="m 211.60827,74.824 -0.0332,103.56153 -89.70351,51.75202 -89.670315,-51.80951 0.03319,-103.561527 89.703505,-51.752019 z"
       inkscape:transform-center-x="0.33571575"
       inkscape:transform-center-y="-1.5021032"
       transform="matrix(0.83021845,0,0,0.83323656,272.20317,419.13347)" />
    <g
       id="g7891">
      <path
         id="path4234"
         d="m 349.16777,458.85544 -0.37797,0.50314 c -2.13632,3.14166 3.64582,9.67584 5.27947,11.43517 -3.76999,9.55064 15.07898,22.87078 15.95865,23.37343 l 0.37799,0.25279 0.37551,-0.37796 c 0.87966,-0.75399 2.38766,-1.13147 4.39831,-1.13147 0.75401,0 1.50752,0.003 2.01019,0.12761 l 0.88114,0 c 0.12566,0 0.62734,-8.5e-4 0.87867,-0.37798 l 0.25284,-0.37798 -0.25284,-0.37552 C 362.6131,466.27074 350.17361,459.48524 349.67096,459.10824 l -0.50319,-0.2528 z m 0.50319,1.88498 c 1.00532,0.62834 2.88835,2.01116 5.52734,4.27317 l 10.30612,16.71459 -10.17849,-5.52981 c -0.62833,-1.88499 -0.75448,-3.64578 0.12516,-5.27946 l 0.25035,-0.37553 -0.37551,-0.37797 c -2.63898,-2.76466 -5.90631,-7.28866 -5.65497,-9.42499 z m 9.42496,8.04314 c 4.90099,4.901 11.05717,12.19062 17.96882,22.99794 -0.50268,0 -1.1315,-0.12764 -1.75981,-0.12764 -0.75403,0 -1.25667,0.003 -1.88502,0.12764 l -14.32399,-22.99794 z m -2.76613,9.55016 10.68163,5.90779 4.90149,7.9155 c -0.50267,0.12568 -1.00434,0.37702 -1.507,0.62835 -2.01067,-1.38233 -10.68314,-8.04265 -14.07612,-14.45164 z m -25.63642,3.39446 c -4.14699,0 -17.71898,0.75254 -19.47833,9.80052 -0.25132,1.00533 0.12768,2.13632 0.756,3.14166 2.76466,4.02131 12.94216,7.79229 24.25211,11.0596 0,0.12567 -4.8e-4,0.25182 0.12519,0.50318 12.18963,15.83395 9.42497,17.34047 9.42497,17.34047 -1.63368,3.64434 -6.53465,8.5e-4 -16.96497,-12.18864 -2.63898,3.01598 -5.277,9.17216 -5.277,9.17216 4.27267,4.14698 7.9165,7.41482 12.6918,10.55647 2.01068,1.25666 1.00585,4.27365 -1.38181,4.14797 -5.52933,-0.25133 -10.93349,-4.90049 -14.32646,-7.03683 -1.00535,6.03199 -0.50316,10.8068 -0.50316,10.8068 3.89564,1.50801 7.03731,1.88404 13.19496,3.39204 2.89034,0.62833 2.38768,5.02665 -0.62832,5.02665 -2.63902,-0.12567 -6.78451,-1.13002 -12.94219,-2.76368 0.37702,2.13632 1.38136,6.15617 2.13535,6.65885 2.26202,1.38231 13.32014,0 13.32014,0 l 4.90151,2.64096 c 3.76998,-2.63902 12.81895,-7.66663 16.7146,-16.0863 4.02132,-8.41963 9.55014,-9.92811 9.55014,-9.92811 -4.90098,-6.15766 -6.53365,-11.93684 -6.53365,-16.71217 1.00533,0.25132 2.13434,0.377 3.01402,0.62833 0.12566,5.02665 1.88647,10.05332 4.65112,13.19498 7.03732,8.16831 18.72479,1.12904 18.72479,1.12904 2.01066,-14.57732 10.17847,-16.33663 10.17847,-16.33663 1.25667,-3.26732 -3.2683,-17.84465 -19.85626,-15.70832 -4.39832,0.62835 -7.66417,2.51532 -9.80049,5.1543 -9.17364,-6.78599 -20.35944,-13.69812 -24.12943,-15.58311 -2.38766,-1.25669 -7.03781,-2.01019 -11.81311,-2.01019 z m 0,1.50702 c 4.52397,0 8.92329,0.62882 11.05961,1.75982 6.03198,3.01599 31.04058,18.72331 36.19289,26.64029 l 0.12519,0.12518 -33.67957,-19.10033 -0.12518,-0.12515 -3.14166,0 -15.33027,-9.04947 c 1.63363,-0.25132 3.26532,-0.25034 4.89901,-0.25034 z m -7.03684,0.62834 14.70443,8.79663 -9.42494,0.12518 -16.33664,-1.75982 c 1.25667,-4.02134 5.77916,-6.15669 11.05715,-7.162 z m -11.18479,8.54629 16.46428,1.75735 3.01401,0 4.14796,3.14167 -9.92813,3.89762 c -6.40898,-2.26198 -11.43613,-4.7763 -13.06979,-7.28962 -0.37702,-0.50268 -0.50268,-1.00437 -0.62833,-1.50702 z m 31.29142,1.50702 18.97513,10.80681 -9.29736,-0.62831 -15.58312,-7.16203 -3.6448,-2.76614 9.55015,-0.25033 z m -6.15817,4.27313 15.45797,7.16201 12.69179,1.00631 11.81313,6.65885 -0.50314,0 c -9.92766,-1.508 -33.04876,-5.90436 -48.75706,-11.18236 l 9.29731,-3.64481 z m 84.44929,3.89517 c 0,0 -8.16832,2.38865 -9.42498,2.89131 -0.75401,0.25135 -3.64384,2.88985 -5.78016,5.15183 -1.63366,-0.62833 -4.65115,-0.87967 -9.04946,1.25668 -7.0373,3.51866 -14.57729,15.45646 -3.14165,26.51509 l 2.63851,1.88502 c 0,0 2.38813,-2.63902 5.5298,0 0,0 11.05962,-4.39883 11.05962,-19.35313 0,-0.50267 5.1e-4,-1.00438 -0.12516,-1.50701 l 3.39201,1.25667 c 0,0 4.77432,7.03684 5.90533,8.29348 1.00533,1.25667 1.1315,-0.37798 1.1315,-0.37798 0,0 -5.15135,-7.16247 -5.90534,-8.29349 -0.37701,-0.50267 -2.51431,-1.38281 -4.77631,-2.38813 -1.25666,-5.27799 -5.40217,-6.65887 -5.40217,-6.65887 l -0.12764,0 4.65114,-4.65113 c 0,0 7.66565,-2.26051 9.42497,-2.88885 1.75934,-0.62832 0,-1.13149 0,-1.13149 z m -23.15991,13.27352 c 0.14244,-2.3e-4 0.28125,0.0152 0.41479,0.0468 2.262,0.37699 3.76902,4.52448 2.76368,9.29981 -1.00534,4.77531 -4.27216,8.54532 -6.4085,8.16831 -2.13634,-0.50266 -3.89664,-4.64917 -2.89131,-9.55015 0.94248,-4.47685 3.98463,-7.96092 6.12134,-7.9646 z m -12.02666,13.74478 -5.02669,1.63463 c -0.12564,0 -2.13631,2.38666 -1.25663,5.90532 0,0 -4.90246,3.76902 -4.65115,5.90535 0,0 0.87967,3.5206 0,5.15428 -0.87965,1.63366 0.62932,1.50702 1.0063,0.25036 0.377,-1.25669 0.50319,-1.63466 0.50319,-1.63466 0.50265,-1.75933 0.50314,-3.76998 0.50314,-3.76998 l 4.89904,-4.39832 c 0,0 3.52011,-1.00437 4.0228,-9.04698 z m -20.6098,1.50699 c 0,0 -4.39833,1.38381 -4.39833,4.0228 0,0 1.75933,7.03584 4.39833,7.91551 0,0 2.76467,6.28382 5.02666,6.78645 l 0.378,0 c 0.37697,-0.12565 0.62832,-0.50118 0.62832,-1.00385 -0.12564,-0.37699 -0.37896,-0.75546 -0.75596,-0.88112 0,0 -3.1402,-2.01116 -3.51718,-4.90148 0,0 1.75883,-3.89568 -1.75984,-11.93831 z m 33.37525,9.95267 c -0.60085,0.0234 -1.32933,0.22631 -2.20898,0.72898 0,0 -0.50269,4.27315 1.25665,4.27315 1.75934,0 2.88934,-1.63222 3.39201,-3.51719 0,0 -0.63718,-1.55562 -2.43968,-1.48494 z m -45.56389,4.62659 -4.14799,4.2707 c 0,0 3.51768,3.64627 5.90533,5.78261 1.00535,0.87966 2.51383,0.50071 3.01652,-0.75595 l 2.38813,4.0228 c 0.12566,0.25132 0.25232,0.37553 0.378,0.37553 0.25133,0 0.50069,-0.25134 0.50069,-0.62835 0,0 4.7e-4,-0.12466 -0.12516,-0.25035 -0.12566,-0.62834 -0.62688,-2.26249 -1.63219,-4.27315 0,0 -1.00535,-5.2765 -6.28333,-8.54384 z m -19.54456,8.2984 c -0.18653,0.0176 -0.37354,0.0573 -0.56206,0.12027 -4.90098,1.50801 -10.55648,0.37799 -10.55648,0.37799 0.25135,5.52931 8.04316,10.68163 8.04316,10.68163 -0.25133,-2.26199 3.76801,-5.90781 6.15566,-7.79279 0.75402,-0.62832 0.62885,-1.75785 -0.12514,-2.26051 l -1.38184,-0.75597 c -0.47128,-0.28274 -1.01369,-0.42363 -1.57328,-0.37062 z"
         inkscape:connector-curvature="0"
         style="display:inline" />
      <g
         id="text7851"
         style="font-style:normal;font-variant:normal;font-weight:normal;font-stretch:normal;font-size:36.78915787px;line-height:125%;font-family:Passion;-inkscape-font-specification:Passion;letter-spacing:0px;word-spacing:0px;fill:#000000;fill-opacity:1;stroke:none;stroke-width:1px;stroke-linecap:butt;stroke-linejoin:miter;stroke-opacity:1">
        <path
           id="path7883"
           style=""
           d="m 382.62364,549.43091 c -2.24414,0 -3.60534,0.88294 -4.59864,1.72909 l -0.36789,0.3311 c -0.55184,-1.32441 -1.72909,-2.06019 -3.82608,-2.06019 -2.24414,0 -3.60533,0.88294 -4.59864,1.72909 l -0.14716,0 -0.36789,-1.28762 -5.62874,0 0,17.622 6.18058,0 0,-11.88289 c 0.44147,-0.33111 1.10367,-0.51505 1.72909,-0.51505 0.55184,0 0.80936,0.36789 0.80936,0.91973 l 0,11.47821 6.25416,0 0,-11.88289 c 0.44147,-0.33111 1.10367,-0.51505 1.72909,-0.51505 0.55183,0 0.80936,0.36789 0.80936,0.91973 l 0,11.47821 6.25416,0 0,-13.57519 c 0,-2.83277 -1.06689,-4.48828 -4.23076,-4.48828 z" />
        <path
           id="path7885"
           style=""
           d="m 396.38566,554.69176 c 1.25083,0 1.65551,0.62541 1.65551,1.72909 l 0,0.88294 -3.20065,0 c 0,-1.50836 0.18394,-2.61203 1.54514,-2.61203 z m 0.14716,-5.26085 c -5.37122,0 -7.7993,3.23744 -7.7993,9.19729 0,5.55516 2.6856,9.23408 7.83609,9.23408 2.31771,0 4.15717,-0.33111 6.18057,-0.95652 l -0.51504,-4.56186 c -1.83946,0.44147 -3.23745,0.84615 -4.7458,0.84615 -1.65552,0 -2.53846,-0.84615 -2.53846,-2.75918 l 8.38793,0 c 0.11037,-1.50836 0.25753,-2.97993 0.25753,-3.97323 0,-4.23076 -1.72909,-7.02673 -7.06352,-7.02673 z" />
        <path
           id="path7887"
           style=""
           d="m 404.67816,562.63822 c 0,3.20065 1.54515,5.22406 4.48828,5.22406 2.28093,0 3.34782,-0.699 4.19397,-1.87625 l 0.18394,0 c 0.55184,1.43478 1.83946,1.87625 3.45818,1.87625 0.91973,0 1.28762,-0.0736 2.35451,-0.14716 l 0.55184,-4.45149 c -1.10368,0 -1.54515,-0.22073 -1.54515,-1.17725 0,-2.53845 0.18395,-5.33443 0.18395,-7.61536 0,-3.42139 -1.50836,-5.04011 -5.37122,-5.04011 -2.64882,0 -5.51837,0.55184 -8.09361,1.21404 l 0.91972,5.37122 c 2.0602,-0.58863 4.26755,-1.06689 5.51838,-1.06689 0.73578,0 1.03009,0.44147 1.03009,1.0301 l 0,0.88294 c -4.89295,0.44147 -7.87288,1.43478 -7.87288,5.7759 z m 6.76921,0.91972 c -0.77257,0 -1.14046,-0.47825 -1.14046,-1.36119 0,-1.28762 0.80936,-1.65552 2.50166,-1.87625 l 0,1.80267 c 0,0.9933 -0.44147,1.43477 -1.3612,1.43477 z" />
        <path
           id="path7889"
           style=""
           d="m 434.42393,567.86228 c 0.91973,0 1.80267,-0.11037 2.46487,-0.14716 l 0.55184,-4.45149 c -1.0301,0 -1.3612,-0.25752 -1.3612,-1.17725 l 0,-18.17385 -6.14379,0 0,6.43811 c -0.77257,-0.66221 -1.6923,-0.91973 -3.01671,-0.91973 -3.78928,0 -5.84948,3.16387 -5.84948,9.08692 0,5.92305 1.39799,9.34445 5.99664,9.34445 1.76588,0 2.97992,-0.73579 3.7157,-1.87625 l 0.18395,0 c 0.51504,1.50835 2.0234,1.87625 3.45818,1.87625 z m -7.17389,-9.1605 c 0,-2.53846 0.11037,-4.0836 1.43478,-4.0836 0.55184,0 0.99331,0.18395 1.43478,0.44147 l 0,7.61536 c -0.55184,0.25752 -0.99331,0.3311 -1.47157,0.3311 -1.3612,0 -1.39799,-1.47157 -1.39799,-4.30433 z" />
      </g>
    </g>
  </g>
</svg>
