<?xml version="1.0" encoding="UTF-8" standalone="no"?>
<svg xmlns="http://www.w3.org/2000/svg" viewBox="0 0 100 100">
  <circle cx="50" cy="50" r="50" fill="#ff9300"/>
  <path d="M37.49 4.357l-.3.4c-1.7 2.5 2.9 7.7 4.2 9.1-3 7.6 12 18.2 12.7 18.6l.3.2.3-.3c.7-.6 1.9-.9 3.5-.9.6 0 1.2.002 1.6.102h.7c.1 0 .5-.002.7-.302l.2-.3-.2-.3c-13-20.4-22.9-25.8-23.3-26.1l-.4-.2zm.4 1.5c.8.5 2.3 1.6 4.4 3.4l8.2 13.302-8.1-4.402c-.5-1.5-.6-2.9.1-4.2l.2-.3-.3-.3c-2.1-2.2-4.7-5.8-4.5-7.5zm7.5 6.4c3.9 3.9 8.8 9.702 14.3 18.302-.4 0-.9-.103-1.4-.103-.6 0-1 .002-1.5.102l-11.4-18.302zm-2.2 7.6l8.5 4.702 3.9 6.297c-.4.1-.8.3-1.2.5-1.6-1.1-8.5-6.4-11.2-11.5zm-20.4 2.702c-3.3 0-14.1.597-15.5 7.797-.2.8.1 1.7.6 2.5 2.2 3.2 10.3 6.2 19.3 8.8 0 .1 0 .202.1.402 9.7 12.6 7.5 13.797 7.5 13.797-1.3 2.9-5.2 0-13.5-9.7-2.1 2.4-4.2 7.3-4.2 7.3 3.4 3.3 6.3 5.9 10.1 8.4 1.6 1 .8 3.4-1.1 3.3-4.4-.2-8.7-3.898-11.4-5.598-.8 4.8-.4 8.598-.4 8.598 3.1 1.2 5.6 1.5 10.5 2.7 2.3.5 1.9 4-.5 4-2.1-.1-5.4-.9-10.3-2.2.3 1.7 1.1 4.9 1.7 5.3 1.8 1.1 10.6 0 10.6 0l3.9 2.1c3-2.1 10.2-6.1 13.3-12.8 3.2-6.7 7.6-7.9 7.6-7.9-3.9-4.9-5.2-9.5-5.2-13.3.8.2 1.7.3 2.4.5.1 4 1.5 8 3.7 10.5 5.6 6.5 14.9.9 14.9.9 1.6-11.6 8.1-13 8.1-13 1-2.6-2.6-14.2-15.8-12.5-3.5.5-6.1 2-7.8 4.1-7.3-5.4-16.2-10.9-19.2-12.4-1.9-1-5.6-1.6-9.4-1.6zm0 1.198c3.6 0 7.1.5 8.8 1.4 4.8 2.4 24.7 14.9 28.8 21.2l.1.1-26.8-15.2-.1-.1h-2.5l-12.2-7.2c1.3-.2 2.6-.2 3.9-.2zm-5.6.5l11.7 7-7.5.1-13-1.4c1-3.2 4.6-4.9 8.8-5.7zm-8.9 6.8l13.1 1.4h2.4l3.3 2.5-7.9 3.1c-5.1-1.8-9.1-3.8-10.4-5.8-.3-.4-.4-.8-.5-1.2zm24.9 1.2l15.1 8.6-7.4-.5-12.4-5.7-2.9-2.2 7.6-.2zm-4.9 3.4l12.3 5.7 10.1.8 9.4 5.3h-.4c-7.9-1.2-26.3-4.7-38.8-8.9l7.4-2.9zm67.2 3.1s-6.5 1.9-7.5 2.3c-.6.2-2.9 2.3-4.6 4.1-1.3-.5-3.7-.7-7.2 1-5.6 2.8-11.6 12.3-2.5 21.1l2.1 1.5s1.9-2.1 4.4 0c0 0 8.8-3.5 8.8-15.4 0-.4 0-.8-.1-1.2l2.7 1s3.8 5.6 4.7 6.6c.8 1 .9-.3.9-.3s-4.1-5.7-4.7-6.6c-.3-.4-2-1.1-3.8-1.9-1-4.2-4.3-5.3-4.3-5.3h-.1l3.7-3.7s6.1-1.8 7.5-2.3c1.4-.5 0-.9 0-.9zM77.06 49.32c.114 0 .224.012.33.037 1.8.3 3 3.6 2.2 7.4-.8 3.8-3.4 6.8-5.1 6.5-1.7-.4-3.1-3.7-2.3-7.6.75-3.56 3.17-6.334 4.87-6.337zm-9.57 10.938l-4 1.3c-.1 0-1.7 1.9-1 4.7 0 0-3.9 3-3.7 4.7 0 0 .7 2.8 0 4.1-.7 1.3.5 1.2.8.2.3-1 .4-1.3.4-1.3.4-1.4.4-3 .4-3l3.9-3.5s2.8-.8 3.2-7.2zm-16.4 1.2s-3.5 1.1-3.5 3.2c0 0 1.4 5.6 3.5 6.3 0 0 2.2 5 4 5.4h.3c.3-.1.5-.4.5-.8-.1-.3-.3-.6-.6-.7 0 0-2.5-1.6-2.8-3.9 0 0 1.4-3.1-1.4-9.5zm26.558 7.92c-.478.018-1.057.18-1.757.58 0 0-.4 3.4 1 3.4s2.3-1.3 2.7-2.8c0 0-.507-1.237-1.942-1.18zm-36.257 3.68l-3.3 3.4s2.8 2.9 4.7 4.6c.8.7 2 .4 2.4-.6l1.9 3.2c.1.2.2.3.3.3.2 0 .4-.2.4-.5 0 0 0-.1-.1-.2-.1-.5-.5-1.8-1.3-3.4 0 0-.8-4.2-5-6.8zM25.84 79.663c-.15.014-.297.046-.447.096-3.9 1.2-8.4.3-8.4.3.2 4.4 6.4 8.5 6.4 8.5-.2-1.8 3-4.7 4.9-6.2.6-.5.5-1.4-.1-1.8l-1.1-.6c-.375-.226-.807-.338-1.252-.296z"/>
</svg>
